<svg width="1053" height="110" viewBox="0 0 1053 110" fill="none" xmlns="http://www.w3.org/2000/svg">
<g clip-path="url(#clip0_305_252)">
<path d="M0 18C0 8.05888 8.05888 0 18 0H1035C1044.94 0 1053 8.05887 1053 18V110H0V18Z" fill="url(#paint0_linear_305_252)"/>
<g filter="url(#filter0_d_305_252)">
<circle cx="-207.02" cy="346.365" r="400.067" transform="rotate(-24.7997 -207.02 346.365)" fill="#55B271"/>
<circle cx="-207.02" cy="346.365" r="399.067" transform="rotate(-24.7997 -207.02 346.365)" stroke="#9AD7AC" stroke-width="2"/>
</g>
<g filter="url(#filter1_d_305_252)">
<circle cx="1265.98" cy="346.365" r="400.067" transform="rotate(-24.7997 1265.98 346.365)" fill="#55B271"/>
<circle cx="1265.98" cy="346.365" r="399.067" transform="rotate(-24.7997 1265.98 346.365)" stroke="#9AD7AC" stroke-width="2"/>
</g>
</g>
<defs>
<filter id="filter0_d_305_252" x="-847.184" y="-289.624" width="1280.33" height="1280.33" filterUnits="userSpaceOnUse" color-interpolation-filters="sRGB">
<feFlood flood-opacity="0" result="BackgroundImageFix"/>
<feColorMatrix in="SourceAlpha" type="matrix" values="0 0 0 0 0 0 0 0 0 0 0 0 0 0 0 0 0 0 127 0" result="hardAlpha"/>
<feOffset dy="4.17376"/>
<feGaussianBlur stdDeviation="120"/>
<feComposite in2="hardAlpha" operator="out"/>
<feColorMatrix type="matrix" values="0 0 0 0 0.0187736 0 0 0 0 0.172673 0 0 0 0 0.0651088 0 0 0 0.6 0"/>
<feBlend mode="normal" in2="BackgroundImageFix" result="effect1_dropShadow_305_252"/>
<feBlend mode="normal" in="SourceGraphic" in2="effect1_dropShadow_305_252" result="shape"/>
</filter>
<filter id="filter1_d_305_252" x="625.816" y="-289.624" width="1280.33" height="1280.33" filterUnits="userSpaceOnUse" color-interpolation-filters="sRGB">
<feFlood flood-opacity="0" result="BackgroundImageFix"/>
<feColorMatrix in="SourceAlpha" type="matrix" values="0 0 0 0 0 0 0 0 0 0 0 0 0 0 0 0 0 0 127 0" result="hardAlpha"/>
<feOffset dy="4.17376"/>
<feGaussianBlur stdDeviation="120"/>
<feComposite in2="hardAlpha" operator="out"/>
<feColorMatrix type="matrix" values="0 0 0 0 0.0187736 0 0 0 0 0.172673 0 0 0 0 0.0651088 0 0 0 0.6 0"/>
<feBlend mode="normal" in2="BackgroundImageFix" result="effect1_dropShadow_305_252"/>
<feBlend mode="normal" in="SourceGraphic" in2="effect1_dropShadow_305_252" result="shape"/>
</filter>
<linearGradient id="paint0_linear_305_252" x1="-431.5" y1="-33.0346" x2="599.304" y2="766.845" gradientUnits="userSpaceOnUse">
<stop stop-color="#55B271" stop-opacity="0.3"/>
<stop offset="1" stop-color="#55B270"/>
</linearGradient>
<clipPath id="clip0_305_252">
<path d="M0 18C0 8.05888 8.05888 0 18 0H1035C1044.94 0 1053 8.05887 1053 18V110H0V18Z" fill="white"/>
</clipPath>
</defs>
</svg>
